<svg width="1940" height="1577" viewBox="0 0 1940 1577" fill="none" xmlns="http://www.w3.org/2000/svg">
<g opacity="0.15" filter="url(#filter0_f_25498_8)">
<rect x="464.5" y="317.785" width="1022.45" height="952.068" rx="476.034" transform="rotate(-0.548337 464.5 317.785)" fill="url(#paint0_linear_25498_8)"/>
</g>
<g opacity="0.5">
<path d="M26.25 897.5H0V1055H30.4062V952.188L102.594 1055H128.844V897.5H98.6563V1000.31L26.25 897.5Z" fill="#372B43" fill-opacity="0.62"/>
<path d="M231.451 1058.28C253.326 1058.28 274.982 1049.97 289.42 1032.47C302.326 1016.72 307.357 998.125 307.795 976.25C307.357 955.25 302.764 936 289.42 919.813C275.42 902.75 254.201 894.219 231.451 894.219C208.701 894.219 187.264 902.531 173.482 919.813C160.795 935.125 155.107 955.25 155.107 976.25C155.107 997.25 160.795 1017.16 173.482 1032.47C187.045 1049.53 208.92 1058.28 231.451 1058.28ZM231.451 1030.28C217.889 1030.5 204.764 1025.03 197.107 1014.53C189.014 1004.03 186.607 990.031 186.389 976.25C186.607 962.469 189.014 948.25 197.107 937.969C204.764 927.469 217.889 922 231.451 922.219C245.014 922 257.92 927.469 265.795 937.969C273.67 948.25 276.295 962.469 276.295 976.25C276.295 990.031 273.67 1004.03 265.795 1014.53C257.92 1025.03 245.014 1030.5 231.451 1030.28Z" fill="#372B43" fill-opacity="0.62"/>
<path d="M443.516 897.5H314.453V927.25H364.109V1055H393.859V927.25H443.516V897.5Z" fill="#372B43" fill-opacity="0.62"/>
<path d="M552.59 1055H583.215L535.09 897.5H490.684L442.559 1055H473.184L480.621 1030.5H544.934L552.59 1055ZM489.152 1002.5L512.559 925.5L536.402 1002.5H489.152Z" fill="#372B43" fill-opacity="0.62"/>
<path d="M707.779 978.219C705.373 975.156 702.748 972.313 699.904 969.688C700.123 969.469 700.561 969.031 700.779 968.594C706.686 961.156 710.186 951.531 709.967 942.344C709.748 932.719 706.686 923.094 700.779 915.656C695.529 908 687.436 902.313 678.248 899.688C673.873 898.156 669.279 897.5 664.686 897.5H601.904V1055H668.404C673.436 1055 678.467 1053.91 683.279 1052.59C692.904 1049.53 701.654 1043.63 707.779 1035.53C713.904 1027 717.186 1016.94 717.186 1006.88C717.186 996.375 713.904 986.313 707.779 978.219ZM664.467 925.281C667.967 925.281 673.217 928.125 675.404 930.969C678.248 934.031 679.561 938.188 679.779 942.344C679.998 946.063 678.467 949.781 676.061 952.625C673.654 955.688 669.279 958.094 666.217 958.75H632.092V925.281H664.467ZM687.217 1006.88C686.998 1012.56 685.029 1018.03 680.654 1021.75C677.154 1024.81 672.779 1027 667.967 1027H632.092V986.75H667.967C672.998 986.75 677.154 987.844 681.529 992.219C685.248 996.156 687.436 1001.63 687.217 1006.88Z" fill="#372B43" fill-opacity="0.62"/>
</g>
<g opacity="0.5">
<path d="M1099.25 566.5H1073V724H1103.41V621.188L1175.59 724H1201.84V566.5H1171.66V669.313L1099.25 566.5Z" fill="#372B43" fill-opacity="0.62"/>
<path d="M1304.45 727.281C1326.33 727.281 1347.98 718.969 1362.42 701.469C1375.33 685.719 1380.36 667.125 1380.79 645.25C1380.36 624.25 1375.76 605 1362.42 588.813C1348.42 571.75 1327.2 563.219 1304.45 563.219C1281.7 563.219 1260.26 571.531 1246.48 588.813C1233.79 604.125 1228.11 624.25 1228.11 645.25C1228.11 666.25 1233.79 686.156 1246.48 701.469C1260.04 718.531 1281.92 727.281 1304.45 727.281ZM1304.45 699.281C1290.89 699.5 1277.76 694.031 1270.11 683.531C1262.01 673.031 1259.61 659.031 1259.39 645.25C1259.61 631.469 1262.01 617.25 1270.11 606.969C1277.76 596.469 1290.89 591 1304.45 591.219C1318.01 591 1330.92 596.469 1338.79 606.969C1346.67 617.25 1349.29 631.469 1349.29 645.25C1349.29 659.031 1346.67 673.031 1338.79 683.531C1330.92 694.031 1318.01 699.5 1304.45 699.281Z" fill="#372B43" fill-opacity="0.62"/>
<path d="M1516.52 566.5H1387.45V596.25H1437.11V724H1466.86V596.25H1516.52V566.5Z" fill="#372B43" fill-opacity="0.62"/>
<path d="M1625.59 724H1656.21L1608.09 566.5H1563.68L1515.56 724H1546.18L1553.62 699.5H1617.93L1625.59 724ZM1562.15 671.5L1585.56 594.5L1609.4 671.5H1562.15Z" fill="#372B43" fill-opacity="0.62"/>
<path d="M1780.78 647.219C1778.37 644.156 1775.75 641.313 1772.9 638.688C1773.12 638.469 1773.56 638.031 1773.78 637.594C1779.69 630.156 1783.19 620.531 1782.97 611.344C1782.75 601.719 1779.69 592.094 1773.78 584.656C1768.53 577 1760.44 571.313 1751.25 568.688C1746.87 567.156 1742.28 566.5 1737.69 566.5H1674.9V724H1741.4C1746.44 724 1751.47 722.906 1756.28 721.594C1765.9 718.531 1774.65 712.625 1780.78 704.531C1786.9 696 1790.19 685.938 1790.19 675.875C1790.19 665.375 1786.9 655.313 1780.78 647.219ZM1737.47 594.281C1740.97 594.281 1746.22 597.125 1748.4 599.969C1751.25 603.031 1752.56 607.188 1752.78 611.344C1753 615.063 1751.47 618.781 1749.06 621.625C1746.65 624.688 1742.28 627.094 1739.22 627.75H1705.09V594.281H1737.47ZM1760.22 675.875C1760 681.563 1758.03 687.031 1753.65 690.75C1750.15 693.813 1745.78 696 1740.97 696H1705.09V655.75H1740.97C1746 655.75 1750.15 656.844 1754.53 661.219C1758.25 665.156 1760.44 670.625 1760.22 675.875Z" fill="#372B43" fill-opacity="0.62"/>
</g>
<g opacity="0.5">
<path d="M1248.25 853.5H1222V1011H1252.41V908.188L1324.59 1011H1350.84V853.5H1320.66V956.313L1248.25 853.5Z" fill="#372B43" fill-opacity="0.62"/>
<path d="M1453.45 1014.28C1475.33 1014.28 1496.98 1005.97 1511.42 988.469C1524.33 972.719 1529.36 954.125 1529.79 932.25C1529.36 911.25 1524.76 892 1511.42 875.813C1497.42 858.75 1476.2 850.219 1453.45 850.219C1430.7 850.219 1409.26 858.531 1395.48 875.813C1382.79 891.125 1377.11 911.25 1377.11 932.25C1377.11 953.25 1382.79 973.156 1395.48 988.469C1409.04 1005.53 1430.92 1014.28 1453.45 1014.28ZM1453.45 986.281C1439.89 986.5 1426.76 981.031 1419.11 970.531C1411.01 960.031 1408.61 946.031 1408.39 932.25C1408.61 918.469 1411.01 904.25 1419.11 893.969C1426.76 883.469 1439.89 878 1453.45 878.219C1467.01 878 1479.92 883.469 1487.79 893.969C1495.67 904.25 1498.29 918.469 1498.29 932.25C1498.29 946.031 1495.67 960.031 1487.79 970.531C1479.92 981.031 1467.01 986.5 1453.45 986.281Z" fill="#372B43" fill-opacity="0.62"/>
<path d="M1665.52 853.5H1536.45V883.25H1586.11V1011H1615.86V883.25H1665.52V853.5Z" fill="#372B43" fill-opacity="0.62"/>
<path d="M1774.59 1011H1805.21L1757.09 853.5H1712.68L1664.56 1011H1695.18L1702.62 986.5H1766.93L1774.59 1011ZM1711.15 958.5L1734.56 881.5L1758.4 958.5H1711.15Z" fill="#372B43" fill-opacity="0.62"/>
<path d="M1929.78 934.219C1927.37 931.156 1924.75 928.313 1921.9 925.688C1922.12 925.469 1922.56 925.031 1922.78 924.594C1928.69 917.156 1932.19 907.531 1931.97 898.344C1931.75 888.719 1928.69 879.094 1922.78 871.656C1917.53 864 1909.44 858.313 1900.25 855.688C1895.87 854.156 1891.28 853.5 1886.69 853.5H1823.9V1011H1890.4C1895.44 1011 1900.47 1009.91 1905.28 1008.59C1914.9 1005.53 1923.65 999.625 1929.78 991.531C1935.9 983 1939.19 972.938 1939.19 962.875C1939.19 952.375 1935.9 942.313 1929.78 934.219ZM1886.47 881.281C1889.97 881.281 1895.22 884.125 1897.4 886.969C1900.25 890.031 1901.56 894.188 1901.78 898.344C1902 902.063 1900.47 905.781 1898.06 908.625C1895.65 911.688 1891.28 914.094 1888.22 914.75H1854.09V881.281H1886.47ZM1909.22 962.875C1909 968.563 1907.03 974.031 1902.65 977.75C1899.15 980.813 1894.78 983 1889.97 983H1854.09V942.75H1889.97C1895 942.75 1899.15 943.844 1903.53 948.219C1907.25 952.156 1909.44 957.625 1909.22 962.875Z" fill="#372B43" fill-opacity="0.62"/>
</g>
<g opacity="0.5">
<path d="M208.25 566.5H182V724H212.406V621.188L284.594 724H310.844V566.5H280.656V669.313L208.25 566.5Z" fill="#372B43" fill-opacity="0.62"/>
<path d="M413.451 727.281C435.326 727.281 456.982 718.969 471.42 701.469C484.326 685.719 489.357 667.125 489.795 645.25C489.357 624.25 484.764 605 471.42 588.813C457.42 571.75 436.201 563.219 413.451 563.219C390.701 563.219 369.264 571.531 355.482 588.813C342.795 604.125 337.107 624.25 337.107 645.25C337.107 666.25 342.795 686.156 355.482 701.469C369.045 718.531 390.92 727.281 413.451 727.281ZM413.451 699.281C399.889 699.5 386.764 694.031 379.107 683.531C371.014 673.031 368.607 659.031 368.389 645.25C368.607 631.469 371.014 617.25 379.107 606.969C386.764 596.469 399.889 591 413.451 591.219C427.014 591 439.92 596.469 447.795 606.969C455.67 617.25 458.295 631.469 458.295 645.25C458.295 659.031 455.67 673.031 447.795 683.531C439.92 694.031 427.014 699.5 413.451 699.281Z" fill="#372B43" fill-opacity="0.62"/>
<path d="M625.516 566.5H496.453V596.25H546.109V724H575.859V596.25H625.516V566.5Z" fill="#372B43" fill-opacity="0.62"/>
<path d="M734.59 724H765.215L717.09 566.5H672.684L624.559 724H655.184L662.621 699.5H726.934L734.59 724ZM671.152 671.5L694.559 594.5L718.402 671.5H671.152Z" fill="#372B43" fill-opacity="0.62"/>
<path d="M889.779 647.219C887.373 644.156 884.748 641.313 881.904 638.688C882.123 638.469 882.561 638.031 882.779 637.594C888.686 630.156 892.186 620.531 891.967 611.344C891.748 601.719 888.686 592.094 882.779 584.656C877.529 577 869.436 571.313 860.248 568.688C855.873 567.156 851.279 566.5 846.686 566.5H783.904V724H850.404C855.436 724 860.467 722.906 865.279 721.594C874.904 718.531 883.654 712.625 889.779 704.531C895.904 696 899.186 685.938 899.186 675.875C899.186 665.375 895.904 655.313 889.779 647.219ZM846.467 594.281C849.967 594.281 855.217 597.125 857.404 599.969C860.248 603.031 861.561 607.188 861.779 611.344C861.998 615.063 860.467 618.781 858.061 621.625C855.654 624.688 851.279 627.094 848.217 627.75H814.092V594.281H846.467ZM869.217 675.875C868.998 681.563 867.029 687.031 862.654 690.75C859.154 693.813 854.779 696 849.967 696H814.092V655.75H849.967C854.998 655.75 859.154 656.844 863.529 661.219C867.248 665.156 869.436 670.625 869.217 675.875Z" fill="#372B43" fill-opacity="0.62"/>
</g>
<defs>
<filter id="filter0_f_25498_8" x="157.465" y="0.9646" width="1645.59" height="1575.88" filterUnits="userSpaceOnUse" color-interpolation-filters="sRGB">
<feFlood flood-opacity="0" result="BackgroundImageFix"/>
<feBlend mode="normal" in="SourceGraphic" in2="BackgroundImageFix" result="shape"/>
<feGaussianBlur stdDeviation="155.784" result="effect1_foregroundBlur_25498_8"/>
</filter>
<linearGradient id="paint0_linear_25498_8" x1="549.412" y1="1254.15" x2="758.273" y2="206.451" gradientUnits="userSpaceOnUse">
<stop stop-color="#F101BF"/>
<stop offset="1" stop-color="#0066FF"/>
</linearGradient>
</defs>
</svg>
